<mxfile host="app.diagrams.net" modified="2024-05-31T03:28:35.616Z" agent="Mozilla/5.0 (Windows NT 10.0; Win64; x64) AppleWebKit/537.36 (KHTML, like Gecko) Chrome/124.0.0.0 Safari/537.36" version="24.2.5" etag="Yd57_4mSJUZyywkICrcS" type="github">
  <diagram name="第 1 页" id="66Sypo-kBPAVXlwhEzYz">
    <mxGraphModel>
      <root>
        <mxCell id="0" />
        <mxCell id="1" parent="0" />
      </root>
    </mxGraphModel>
  </diagram>
</mxfile>
